<svg xmlns="http://www.w3.org/2000/svg" viewBox="0 0 266.19 266.19"><defs><style>.cls-1{fill:#1dbf73;}</style></defs><g id="Layer_2" data-name="Layer 2"><g id="Layer_1-2" data-name="Layer 1"><path d="M212.1,26,201,42.63A113.06,113.06,0,0,0,65,42.77l0,0A113.3,113.3,0,0,0,49.83,56.57c-.47.52-.95,1-1.42,1.57s-.78.89-1.16,1.34c-.7.82-1.4,1.65-2.07,2.49l-.61.74A113.46,113.46,0,0,0,29.76,87.26h-.05q-2,4.43-3.57,9.09a113.33,113.33,0,0,0-5.05,21h0A112.08,112.08,0,0,0,20,133.67v.15c0,1.14,0,2.28.07,3.43,0,.32,0,.64,0,1,0,.75.08,1.51.13,2.26A113.73,113.73,0,0,0,44,202.7v.06a112.45,112.45,0,0,0,14.77,15.57q2.44,2.13,5,4.11V80.56c0-.2,0-.4,0-.6a3.87,3.87,0,0,1,.05-.49.25.25,0,0,1,0-.12l.06-.44a8.55,8.55,0,0,1,.3-1.21c0-.1.06-.19.1-.29a4.82,4.82,0,0,1,.22-.57,8.45,8.45,0,0,1,.61-1.2.82.82,0,0,1,.11-.17q.18-.28.39-.57a8.72,8.72,0,0,1,1-1.13c.18-.17.36-.34.55-.5a6.8,6.8,0,0,1,.6-.46c.15-.11.31-.21.47-.31a1.61,1.61,0,0,1,.28-.17,5.86,5.86,0,0,1,.55-.3c.23-.11.46-.22.7-.31s.49-.18.74-.26.46-.13.69-.18l.54-.1.23,0a9.32,9.32,0,0,1,1.29-.09,8.38,8.38,0,0,1,1.32.1,2.7,2.7,0,0,1,.41.06,9.38,9.38,0,0,1,2.2.69,5,5,0,0,1,.52.26,9.11,9.11,0,0,1,1.9,1.32c.14.13.29.27.42.41a9.44,9.44,0,0,1,1.13,1.38l24.48,36.62H82.79l0,0V256.25a132.51,132.51,0,0,1-19-9.57c-1.69-1-3.36-2.09-5-3.2a133,133,0,0,1-30-193l.05-.06c.54-.69,1.09-1.38,1.65-2.05s.94-1.13,1.42-1.68c.22-.27.44-.54.67-.8A133.08,133.08,0,0,1,212.1,26Z"/><path d="M183.45,122.35l19-28.49v85.71a9.5,9.5,0,0,1-19,0Z"/><path class="cls-1" d="M259.66,91.86h0c-.07-.23-.16-.46-.23-.69-.24-.71-.48-1.42-.73-2.12l-.3-.84c-.31-.86-.63-1.72-1-2.57-.09-.23-.17-.45-.26-.67-.32-.82-.65-1.64-1-2.46-.13-.3-.25-.6-.37-.9-.31-.72-.62-1.44-.94-2.16l-.34-.79-.18-.39c-.23-.5-.46-1-.7-1.52s-.51-1.09-.77-1.63c-.08-.15-.15-.31-.22-.46l-.28-.54c-.49-1-1-2-1.52-3-.11-.2-.21-.41-.32-.6q-2-3.69-4.11-7.2l-.28-.44q-1-1.63-2.07-3.24l-.15-.23c-1.51-2.27-3.07-4.48-4.7-6.62l-.5-.67c-.67-.87-1.36-1.74-2.05-2.6l-.44-.55c-.8-1-1.61-2-2.44-2.9l-.16-.2h0c-1.13-1.3-2.29-2.58-3.46-3.83h0l-.39-.39c-.8-.85-1.62-1.69-2.44-2.51L226,37.81l-.59-.58h0c-3-2.88-6.12-5.63-9.35-8.2L204.92,45.72,185.72,74.4,133.11,153l-23.6-35.29H86.66l38.55,57.67a9.48,9.48,0,0,0,7.89,4.22h0a9.48,9.48,0,0,0,7.89-4.22l42.45-63.41,19-28.38,16.27-24.31c2.44,2.84,4.75,5.78,6.89,8.84h0a113,113,0,0,1,8.28,13.74,1.14,1.14,0,0,0,.1.19q1.19,2.34,2.27,4.76l.12.26c.52,1.18,1,2.36,1.5,3.55h0A113,113,0,0,1,87.77,236.65v21.53a132.71,132.71,0,0,0,103.75-5.49C251.84,223.24,279.93,153.94,259.66,91.86Z"/></g></g></svg>