<?xml version="1.0" encoding="UTF-8"?>
<svg id="Layer_1" data-name="Layer 1" xmlns="http://www.w3.org/2000/svg" viewBox="0 0 630.2 630.2">
  <defs>
    <style>
      .cls-1 {
        fill: url(#gradient1);
      }
    </style>
    <linearGradient id="gradient1" x1="0%" y1="0%" x2="100%" y2="100%">
      <stop offset="0%" style="stop-color:#1dbf73;stop-opacity:1" />
      <stop offset="50%" style="stop-color:#2dd284;stop-opacity:1" />
      <stop offset="100%" style="stop-color:#16a05a;stop-opacity:1" />
    </linearGradient>
  </defs>
  <path d="M502.14,61.53l-26.37,39.39c-77.89-58.24-184.97-71.97-278.2-26.42-15.65,7.65-30.19,16.64-43.61,26.75l.05.07c-12.93,9.71-24.98,20.62-36.03,32.6-1.11,1.23-2.25,2.46-3.36,3.72-.92,1.04-1.85,2.11-2.75,3.17-1.66,1.94-3.31,3.91-4.9,5.9-.47.59-.97,1.16-1.44,1.75-14.16,17.9-25.92,37.43-35.06,58.12l-.12-.02c-3.1,6.98-5.92,14.16-8.45,21.52-5.66,16.48-9.61,33.12-11.96,49.76l.09.02c-1.82,12.74-2.7,25.62-2.65,38.59v.36c0,2.7.07,5.4.17,8.12.05.76.05,1.52.09,2.3.07,1.78.19,3.57.31,5.35,3.6,53.81,23.41,105.19,56.23,147.3v.14c10.56,13.52,22.3,25.83,34.97,36.86,3.86,3.36,7.81,6.61,11.84,9.73V190.73c0-.47,0-.95.05-1.42.02-.4.05-.78.12-1.16-.02-.09,0-.19.02-.28.05-.36.09-.69.14-1.04.17-.97.4-1.92.71-2.86.07-.24.14-.45.24-.69.14-.47.33-.92.52-1.35.4-.99.9-1.94,1.44-2.84.07-.14.14-.26.26-.4.28-.45.59-.9.92-1.35.69-.95,1.47-1.85,2.32-2.68.43-.4.85-.81,1.3-1.18.45-.38.92-.76,1.42-1.09.36-.26.73-.5,1.11-.73.21-.17.43-.28.66-.4.43-.26.85-.5,1.3-.71.54-.26,1.09-.52,1.66-.73.57-.24,1.16-.43,1.75-.62.54-.17,1.09-.31,1.63-.43.43-.09.85-.17,1.28-.24.17-.05.36-.07.54-.09,1.02-.14,2.04-.21,3.05-.21s2.08.07,3.13.24c.33.02.66.07.97.14,1.8.33,3.55.88,5.21,1.63.43.19.83.38,1.23.62,1.61.83,3.13,1.89,4.5,3.13.33.31.69.64.99.97.99.99,1.87,2.08,2.68,3.27l57.96,86.7h-54.1l-.05-.07v341.84c-15.55-6.32-30.59-13.9-44.98-22.66-4-2.44-7.95-4.95-11.84-7.58-44.51-29.85-81.99-71.47-107.18-123.01C13.42,415.47,3.29,375.58.71,335.83c-2.72-40.58,2.34-82.34,16.38-123.16,11.93-34.68,29.36-65.93,50.97-93.16.02-.05.07-.09.12-.14,1.28-1.63,2.58-3.27,3.91-4.85,1.11-1.35,2.23-2.68,3.36-3.98.52-.64,1.04-1.28,1.59-1.89,26.94-31.16,60.44-57.48,99.74-76.68,108.93-53.22,233.88-37.69,325.36,29.57Z"/>
  <path d="M434.3,289.66l44.98-67.45v202.92c0,12.43-10.09,22.49-22.49,22.49s-22.49-10.06-22.49-22.49v-135.47Z"/>
  <path class="cls-1" d="M614.74,217.49h.03c-.18-.54-.38-1.08-.56-1.63-.56-1.68-1.14-3.35-1.72-5.02-.23-.66-.46-1.31-.7-1.97-.73-2.04-1.49-4.07-2.27-6.1-.2-.53-.4-1.05-.6-1.58-.76-1.94-1.53-3.88-2.33-5.82-.29-.71-.58-1.42-.88-2.13-.72-1.71-1.46-3.41-2.21-5.11-.27-.62-.53-1.25-.81-1.86-.14-.31-.29-.62-.43-.93-.54-1.2-1.1-2.4-1.66-3.6-.6-1.29-1.21-2.59-1.83-3.87-.17-.36-.34-.73-.51-1.09-.21-.43-.44-.85-.65-1.28-1.18-2.38-2.38-4.75-3.61-7.09-.25-.47-.49-.95-.74-1.42-3.09-5.81-6.34-11.49-9.75-17.03-.22-.35-.43-.7-.65-1.05-1.6-2.58-3.23-5.14-4.9-7.66-.12-.19-.25-.38-.37-.57-3.56-5.36-7.27-10.58-11.12-15.67-.4-.52-.8-1.05-1.19-1.57-1.59-2.08-3.2-4.13-4.84-6.16-.35-.43-.69-.87-1.04-1.3-1.9-2.33-3.82-4.62-5.78-6.88-.13-.15-.26-.31-.39-.46h0c-2.67-3.07-5.4-6.09-8.18-9.05l.02-.03c-.3-.32-.61-.62-.91-.93-1.9-2.01-3.83-3.98-5.78-5.93-1.07-1.08-2.16-2.13-3.25-3.19-.46-.45-.92-.91-1.39-1.36l-.02.02c-7.12-6.84-14.49-13.35-22.15-19.43l-26.42,39.49-45.46,67.9-124.55,186.01-55.87-83.55h-54.1l91.27,136.53c4.17,6.25,11.17,9.99,18.68,9.99h.02c7.51,0,14.51-3.74,18.68-9.99l100.5-150.12,44.98-67.19,38.52-57.54c5.78,6.71,11.26,13.67,16.33,20.91l.05-.02c7.2,10.24,13.77,21.1,19.6,32.55.08.15.15.3.22.44,1.87,3.69,3.67,7.45,5.39,11.26.09.21.18.42.28.63,1.24,2.79,2.43,5.59,3.56,8.39h.02c52.49,129.14-3.5,279.19-130.59,341.26-73.39,35.84-155.31,34.97-224.86,4.57v50.97c77.51,28.08,165.87,25.97,245.63-13,142.8-69.73,209.32-233.8,161.32-380.76Z"/>
</svg>